<svg width="60" height="60" viewBox="0 0 60 60" fill="none" xmlns="http://www.w3.org/2000/svg">
<rect width="60" height="60" rx="8" fill="black"/>
<path d="M10.9688 18.3281C11.5104 18.3281 12.0417 18.3906 12.5625 18.5156C13.0938 18.6406 13.599 18.8281 14.0781 19.0781C14.5573 19.3177 14.9792 19.6406 15.3438 20.0469C15.7188 20.4531 15.9219 20.9375 15.9531 21.5V22.1562V28.0156H13.8438V21.9844C13.8229 21.6615 13.6979 21.3958 13.4688 21.1875C13.25 20.9688 13 20.7969 12.7188 20.6719C12.4479 20.5469 12.1615 20.4531 11.8594 20.3906C11.5677 20.3281 11.2708 20.2969 10.9688 20.2969C10.6667 20.2969 10.3646 20.3281 10.0625 20.3906C9.77083 20.4531 9.48438 20.5469 9.20312 20.6719C8.93229 20.7969 8.68229 20.9688 8.45312 21.1875C8.23438 21.3958 8.11458 21.6615 8.09375 21.9844V28.0156H6V22.1562V21.5C6.03125 20.9375 6.22917 20.4531 6.59375 20.0469C6.95833 19.6406 7.38021 19.3177 7.85938 19.0781C8.33854 18.8281 8.83854 18.6406 9.35938 18.5156C9.89062 18.3906 10.4271 18.3281 10.9688 18.3281ZM18.4213 25.875H22.2963V20.8438H18.4213V18.75H28.265V20.8438H24.4056V25.875H28.265V27.9688H18.4213V25.875ZM30.5144 18.75H41.3581V20.8438H36.9988V27.9844H34.8894V20.8438H30.5144V18.75ZM53.8262 20.8438H46.5762C46.3783 20.8542 46.2117 20.901 46.0762 20.9844C45.9512 21.0573 45.8575 21.1458 45.795 21.25C45.7325 21.3438 45.7012 21.4427 45.7012 21.5469C45.7012 21.651 45.7325 21.7552 45.795 21.8594C45.8575 21.9531 45.9512 22.0417 46.0762 22.125C46.2117 22.1979 46.3783 22.2396 46.5762 22.25H51.0137C51.7429 22.2708 52.3419 22.4427 52.8106 22.7656C53.2898 23.0781 53.6283 23.4427 53.8262 23.8594C54.0346 24.2656 54.1387 24.6823 54.1387 25.1094C54.1387 25.526 54.0346 25.9427 53.8262 26.3594C53.6179 26.7656 53.2794 27.1302 52.8106 27.4531C52.3419 27.7656 51.7429 27.9219 51.0137 27.9219H50.92C50.8575 27.9323 50.795 27.9375 50.7325 27.9375H43.8262V25.8438H51.1075C51.3054 25.8542 51.4669 25.8177 51.5919 25.7344C51.7273 25.651 51.8262 25.5573 51.8887 25.4531C51.9512 25.3385 51.9825 25.224 51.9825 25.1094C51.9825 25.0365 51.9512 24.9375 51.8887 24.8125C51.8262 24.6771 51.7273 24.5677 51.5919 24.4844C51.4669 24.401 51.3054 24.3542 51.1075 24.3438H46.67C45.9408 24.3229 45.3367 24.1562 44.8575 23.8438C44.3887 23.5312 44.0502 23.1771 43.8419 22.7812C43.644 22.375 43.545 21.9635 43.545 21.5469C43.545 21.1406 43.6492 20.7396 43.8575 20.3438C44.0658 19.9375 44.4044 19.5781 44.8731 19.2656C45.3419 18.9531 45.9408 18.7865 46.67 18.7656H46.7637C46.8262 18.7552 46.8887 18.75 46.9512 18.75H53.8262V20.8438ZM5.85938 32.75H16.7031V34.8438H12.3438V41.9844H10.2344V34.8438H5.85938V32.75ZM18.9525 39.875H22.8275V34.8438H18.9525V32.75H28.7963V34.8438H24.9369V39.875H28.7963V41.9688H18.9525V39.875ZM33.28 42.0156H31.1706V33.7656C31.181 33.474 31.2904 33.2344 31.4988 33.0469C31.7071 32.849 31.9571 32.75 32.2488 32.75H38.8113C39.7279 32.7812 40.4206 32.9844 40.8894 33.3594C41.3581 33.724 41.6967 34.1406 41.905 34.6094C42.1133 35.0781 42.2175 35.5521 42.2175 36.0312C42.2175 36.5312 42.1133 37.0156 41.905 37.4844C41.7071 37.9531 41.3685 38.375 40.8894 38.75C40.4206 39.1146 39.8217 39.2917 39.0925 39.2812H34.28V37.1875H39.1863C39.3842 37.1875 39.5456 37.125 39.6706 37C39.806 36.8646 39.905 36.7135 39.9675 36.5469C40.03 36.3698 40.0613 36.1927 40.0613 36.0156C40.0613 35.849 40.03 35.6823 39.9675 35.5156C39.905 35.3385 39.806 35.1875 39.6706 35.0625C39.5456 34.9271 39.3842 34.8542 39.1863 34.8438H33.6863C33.4154 34.8542 33.28 34.9896 33.28 35.25V42.0156ZM54.5606 34.8438H47.3106C47.1127 34.8542 46.946 34.901 46.8106 34.9844C46.6856 35.0573 46.5919 35.1458 46.5294 35.25C46.4669 35.3438 46.4356 35.4427 46.4356 35.5469C46.4356 35.651 46.4669 35.7552 46.5294 35.8594C46.5919 35.9531 46.6856 36.0417 46.8106 36.125C46.946 36.1979 47.1127 36.2396 47.3106 36.25H51.7481C52.4773 36.2708 53.0762 36.4427 53.545 36.7656C54.0242 37.0781 54.3627 37.4427 54.5606 37.8594C54.769 38.2656 54.8731 38.6823 54.8731 39.1094C54.8731 39.526 54.769 39.9427 54.5606 40.3594C54.3523 40.7656 54.0137 41.1302 53.545 41.4531C53.0762 41.7656 52.4773 41.9219 51.7481 41.9219H51.6544C51.5919 41.9323 51.5294 41.9375 51.4669 41.9375H44.5606V39.8438H51.8419C52.0398 39.8542 52.2012 39.8177 52.3262 39.7344C52.4617 39.651 52.5606 39.5573 52.6231 39.4531C52.6856 39.3385 52.7169 39.224 52.7169 39.1094C52.7169 39.0365 52.6856 38.9375 52.6231 38.8125C52.5606 38.6771 52.4617 38.5677 52.3262 38.4844C52.2012 38.401 52.0398 38.3542 51.8419 38.3438H47.4044C46.6752 38.3229 46.071 38.1562 45.5919 37.8438C45.1231 37.5312 44.7846 37.1771 44.5762 36.7812C44.3783 36.375 44.2794 35.9635 44.2794 35.5469C44.2794 35.1406 44.3835 34.7396 44.5919 34.3438C44.8002 33.9375 45.1387 33.5781 45.6075 33.2656C46.0762 32.9531 46.6752 32.7865 47.4044 32.7656H47.4981C47.5606 32.7552 47.6231 32.75 47.6856 32.75H54.5606V34.8438Z" fill="white"/>
</svg>
